<svg width="19" height="25" viewBox="0 0 19 25" fill="none" xmlns="http://www.w3.org/2000/svg">
<path d="M15.275 8.9C15.275 4.267 12.535 0.5 9.165 0.5C5.795 0.5 3.055 4.268 3.055 8.9H0V24.94H18.33V8.9H15.275ZM9.165 2.026C11.692 2.026 13.748 5.109 13.748 8.9H4.582C4.582 5.111 6.638 2.027 9.165 2.027V2.026ZM16.8 23.412H1.527V10.429H16.8V23.412Z" fill="black"/>
<path d="M3.76596 12.809C3.63127 12.809 3.49961 12.8489 3.38762 12.9237C3.27563 12.9986 3.18833 13.1049 3.13679 13.2293C3.08525 13.3538 3.07177 13.4907 3.09805 13.6228C3.12433 13.7549 3.18918 13.8763 3.28442 13.9715C3.37966 14.0667 3.501 14.1316 3.6331 14.1579C3.7652 14.1841 3.90213 14.1707 4.02656 14.1191C4.151 14.0676 4.25737 13.9803 4.3322 13.8683C4.40702 13.7563 4.44696 13.6246 4.44696 13.49C4.44709 13.4005 4.42956 13.3119 4.39538 13.2292C4.36121 13.1465 4.31105 13.0714 4.24778 13.0081C4.18452 12.9449 4.1094 12.8947 4.02671 12.8605C3.94403 12.8264 3.85542 12.8088 3.76596 12.809Z" fill="black"/>
<path d="M14.565 12.809C14.4303 12.809 14.2987 12.8489 14.1867 12.9237C14.0747 12.9986 13.9874 13.1049 13.9359 13.2293C13.8843 13.3538 13.8708 13.4907 13.8971 13.6228C13.9234 13.7549 13.9882 13.8763 14.0835 13.9715C14.1787 14.0667 14.3001 14.1316 14.4322 14.1579C14.5643 14.1841 14.7012 14.1707 14.8256 14.1191C14.9501 14.0676 15.0564 13.9803 15.1312 13.8683C15.2061 13.7563 15.246 13.6246 15.246 13.49C15.2462 13.4005 15.2286 13.3119 15.1945 13.2292C15.1603 13.1465 15.1101 13.0714 15.0469 13.0081C14.9836 12.9449 14.9085 12.8947 14.8258 12.8605C14.7431 12.8264 14.6545 12.8088 14.565 12.809Z" fill="black"/>
</svg>
