<svg width="22" height="24" viewBox="0 0 22 24" fill="none" xmlns="http://www.w3.org/2000/svg">
<path d="M21.226 19.99C21.195 19.823 21.173 19.699 21.154 19.581C21.1086 19.2809 21.0418 18.9845 20.954 18.694C20.8003 18.1925 20.5952 17.7083 20.342 17.249C20.0287 16.6475 19.6077 16.1086 19.1 15.659L18.988 15.559C18.921 15.503 18.848 15.445 18.822 15.426C18.3363 15.0326 17.7956 14.7125 17.217 14.476C17.054 14.41 16.893 14.34 16.73 14.269L16.415 14.134C15.8279 13.917 15.2145 13.7792 14.591 13.724C14.458 13.705 14.318 13.685 14.179 13.664C14.179 13.596 14.173 13.53 14.171 13.464L14.162 13.264C14.154 13.064 14.145 12.897 14.136 12.745C14.5942 12.2251 14.9492 11.6227 15.182 10.97C15.2014 10.923 15.2274 10.8789 15.259 10.839C15.7403 10.2738 16.09 9.60879 16.283 8.892C16.4237 8.48265 16.4775 8.04847 16.441 7.61716C16.4045 7.18585 16.2785 6.76687 16.071 6.38699C16.0645 6.33828 16.0625 6.28907 16.065 6.23999V6.13999C16.0747 5.97596 16.071 5.81141 16.054 5.64798C16.024 4.81932 15.7518 4.01762 15.271 3.34198C15.1549 2.91465 14.947 2.51776 14.6619 2.17893C14.3767 1.84009 14.0212 1.56747 13.62 1.38001C12.5378 0.85922 11.3304 0.654676 10.137 0.789979C9.14105 0.866742 8.19644 1.26284 7.44354 1.91934C6.69065 2.57585 6.16966 3.45774 5.95802 4.43399C5.8707 4.91602 5.82851 5.40513 5.83202 5.89499C5.83202 6.04999 5.82702 6.20299 5.82002 6.35599L5.79402 6.422C5.78202 6.456 5.76502 6.48901 5.73602 6.54801C5.58027 6.8451 5.48124 7.16861 5.44402 7.50198C5.39956 8.12167 5.48316 8.74389 5.68961 9.32987C5.89606 9.91584 6.22093 10.453 6.64401 10.908C6.87666 11.5813 7.23616 12.2039 7.70303 12.742C7.68803 12.879 7.67401 13.042 7.65601 13.224L7.61203 13.666C7.49203 13.686 7.36803 13.704 7.25003 13.722L7.13403 13.74C6.5665 13.7985 6.00868 13.9289 5.47402 14.128L5.28302 14.212C5.07102 14.304 4.86002 14.395 4.65202 14.482C4.09273 14.7094 3.5693 15.0166 3.09802 15.394C3.03302 15.442 2.97102 15.494 2.82402 15.614L2.77402 15.661C2.27282 16.1019 1.8572 16.6314 1.54802 17.223C1.37784 17.5251 1.23011 17.8393 1.10602 18.163L1.05202 18.294C0.926091 18.5562 0.852708 18.8406 0.836015 19.131C0.804015 19.318 0.755017 19.585 0.707017 19.851L0.683015 19.983C0.605015 20.404 0.535015 20.797 0.517015 20.902C0.454581 21.3082 0.533691 21.7236 0.741059 22.0784C0.948428 22.4332 1.27146 22.706 1.65602 22.851C1.89602 22.951 2.62403 23.251 10.935 23.251C19.246 23.251 19.972 22.951 20.209 22.851C20.4606 22.755 20.6878 22.6044 20.8742 22.41C21.0606 22.2157 21.2016 21.9824 21.287 21.727C21.3554 21.642 21.4044 21.5432 21.4307 21.4373C21.4569 21.3314 21.4598 21.2211 21.439 21.114L21.226 19.99ZM6.94202 7.62601C6.97007 7.46382 7.02553 7.30758 7.10602 7.164C7.14098 7.09446 7.17202 7.02299 7.19901 6.94998C7.23942 6.84975 7.27284 6.74686 7.29901 6.642C7.30623 6.60638 7.31092 6.57028 7.31302 6.534C7.32502 6.326 7.33102 6.118 7.33402 5.914C7.32958 5.51897 7.36104 5.12433 7.42801 4.73499C7.57811 4.07194 7.93784 3.47491 8.45389 3.03235C8.96994 2.58979 9.61485 2.32526 10.293 2.27799C11.2082 2.17241 12.1347 2.32701 12.966 2.724C13.184 2.81928 13.3766 2.96421 13.5285 3.14722C13.6805 3.33023 13.7875 3.54623 13.841 3.77799C13.8787 3.94722 13.9581 4.10433 14.072 4.23499C14.3927 4.69809 14.5649 5.24774 14.566 5.81101C14.5738 5.90284 14.5738 5.99517 14.566 6.08701V6.21399C14.5432 6.55288 14.6264 6.89048 14.804 7.17999C14.9857 7.60724 14.9946 8.08829 14.829 8.522C14.6876 9.02862 14.4356 9.49754 14.091 9.89499C13.9561 10.0618 13.8487 10.2492 13.773 10.45C13.5778 11.0085 13.2581 11.5153 12.838 11.932C12.7579 12.0101 12.6962 12.1051 12.6576 12.2102C12.619 12.3152 12.6045 12.4276 12.615 12.539C12.634 12.747 12.647 13.001 12.661 13.329L12.67 13.529C12.681 13.793 12.693 14.102 12.707 14.338C12.7136 14.4463 12.7439 14.5519 12.7957 14.6473C12.8476 14.7427 12.9197 14.8255 13.007 14.89C12.3529 15.2919 11.6022 15.5092 10.8346 15.5189C10.067 15.5286 9.31105 15.3303 8.64703 14.945C8.75509 14.8898 8.84801 14.8089 8.91773 14.7096C8.98744 14.6103 9.03182 14.4954 9.04703 14.375C9.08103 14.09 9.12101 13.675 9.15701 13.301C9.18401 13.014 9.20602 12.781 9.23502 12.589C9.25226 12.472 9.2416 12.3526 9.20389 12.2405C9.16618 12.1284 9.10247 12.0268 9.01801 11.944C8.59119 11.5173 8.26674 10.9992 8.06903 10.429C8.00809 10.2417 7.91013 10.0686 7.78101 9.91998C7.49011 9.61664 7.26536 9.25621 7.12094 8.86151C6.97652 8.46682 6.91559 8.04644 6.94202 7.62698V7.62601ZM7.35101 14.797C7.33583 14.8229 7.32279 14.85 7.31201 14.878L7.25101 14.478L7.35101 14.797ZM2.00302 21.126C2.01702 21.037 2.08603 20.658 2.16103 20.249L2.18501 20.115C2.24101 19.806 2.29702 19.494 2.33002 19.305C2.34039 19.2533 2.34275 19.2004 2.33702 19.148C2.36751 19.0428 2.40528 18.9399 2.45003 18.84L2.50102 18.715C2.60342 18.448 2.72541 18.189 2.86601 17.94C3.09501 17.4975 3.40467 17.1017 3.77902 16.773L3.81502 16.738C3.89802 16.67 3.94202 16.638 4.01502 16.579C4.3819 16.2835 4.78984 16.043 5.22601 15.865C5.44401 15.774 5.66101 15.681 5.87901 15.586L6.09102 15.493C6.4776 15.3641 6.87687 15.2769 7.28201 15.233C7.31144 15.3558 7.38203 15.4649 7.48203 15.542C8.39774 16.1956 9.48062 16.5751 10.604 16.636V21.749C7.81009 21.8432 5.01296 21.7473 2.23203 21.462C2.00103 21.368 1.98302 21.233 2.00302 21.127V21.126ZM19.873 21.194C19.873 21.246 19.866 21.369 19.65 21.459C16.8933 21.7465 14.1201 21.8434 11.35 21.749V16.625C12.3359 16.531 13.2736 16.1538 14.05 15.539C14.1566 15.4532 14.2279 15.331 14.25 15.196L14.379 15.215C14.8611 15.2617 15.3364 15.3623 15.796 15.515L16.12 15.654C16.294 15.729 16.466 15.804 16.638 15.874C17.089 16.0592 17.5102 16.3099 17.888 16.618L18.007 16.713L18.107 16.796C18.4795 17.1286 18.7876 17.5269 19.016 17.971C19.2207 18.3411 19.3863 18.7316 19.51 19.136C19.5792 19.3652 19.6317 19.5992 19.667 19.836C19.688 19.958 19.71 20.094 19.745 20.278L19.89 21.029C19.878 21.0835 19.8723 21.1392 19.873 21.195V21.194Z" fill="#191919"/>
</svg>
