<svg width="24" height="20" viewBox="0 0 24 20" fill="none" xmlns="http://www.w3.org/2000/svg">
<path d="M20.787 2.54101C20.2793 2.0331 19.6764 1.63019 19.0129 1.35531C18.3494 1.08042 17.6382 0.938933 16.92 0.938933C16.2018 0.938933 15.4907 1.08042 14.8272 1.35531C14.1637 1.63019 13.5608 2.0331 13.053 2.54101L12 3.59401L10.946 2.54101C10.4399 2.02542 9.8367 1.61521 9.17116 1.33409C8.50562 1.05296 7.79098 0.906492 7.06851 0.903135C6.34604 0.899778 5.63007 1.0396 4.96195 1.31453C4.29382 1.58946 3.6868 1.99404 3.17593 2.50491C2.66506 3.01578 2.26048 3.6228 1.98555 4.29093C1.71062 4.95905 1.5708 5.67502 1.57416 6.39749C1.57751 7.11996 1.72398 7.8346 2.00511 8.50014C2.28623 9.16568 2.69644 9.76891 3.21203 10.275L4.26603 11.329L12 19.063L19.734 11.329L20.787 10.275C21.2949 9.76724 21.6979 9.16439 21.9727 8.50088C22.2476 7.83737 22.3891 7.12621 22.3891 6.40801C22.3891 5.68982 22.2476 4.97866 21.9727 4.31515C21.6979 3.65164 21.2949 3.04878 20.787 2.54101V2.54101Z" stroke="black" stroke-width="1.5" stroke-linecap="round" stroke-linejoin="round"/>
</svg>
