<svg width="231" height="225" viewBox="0 0 231 225" fill="none" xmlns="http://www.w3.org/2000/svg">
<path d="M12.3656 187.324H2.37163V214H12.3656C20.8776 214 26.3496 208.566 26.3496 200.662C26.3496 192.72 20.8776 187.324 12.3656 187.324ZM8.86963 208.376V192.872H11.9476C16.8496 192.872 19.7376 195.76 19.7376 200.662C19.7376 205.564 16.8496 208.376 11.9476 208.376H8.86963ZM36.479 204.158C36.479 200.51 38.265 199.446 41.343 199.446H43.129V192.568C40.279 192.568 37.961 194.088 36.479 196.33V192.796H29.981V214H36.479V204.158ZM46.2349 214H52.7329V192.796H46.2349V214ZM49.5029 190.592C51.7829 190.592 53.3409 189.034 53.3409 187.096C53.3409 185.12 51.7829 183.562 49.5029 183.562C47.1849 183.562 45.6269 185.12 45.6269 187.096C45.6269 189.034 47.1849 190.592 49.5029 190.592ZM63.9399 195.798V192.796H57.4419V224.108H63.9399V211.036C65.1179 212.822 67.3599 214.304 70.4759 214.304C75.6819 214.304 79.8239 210.048 79.8239 203.36C79.8239 196.672 75.6819 192.492 70.4759 192.492C67.3599 192.492 65.1179 193.936 63.9399 195.798ZM73.2119 203.36C73.2119 206.742 71.0079 208.642 68.5379 208.642C66.1059 208.642 63.9019 206.78 63.9019 203.398C63.9019 200.016 66.1059 198.154 68.5379 198.154C71.0079 198.154 73.2119 199.978 73.2119 203.36ZM100.447 207.844C100.333 199.94 88.857 202.334 88.857 198.952C88.857 197.926 89.693 197.318 91.213 197.318C93.037 197.318 94.139 198.268 94.329 199.712H100.333C99.915 195.532 96.875 192.492 91.403 192.492C85.855 192.492 82.777 195.456 82.777 199.066C82.777 206.856 94.329 204.386 94.329 207.806C94.329 208.756 93.455 209.516 91.783 209.516C89.997 209.516 88.667 208.528 88.515 207.046H82.093C82.397 211.15 86.197 214.304 91.859 214.304C97.179 214.304 100.447 211.53 100.447 207.844ZM117.833 214H125.699L130.107 196.444L134.363 214H142.229L149.183 187.324H142.191L138.315 206.742L133.755 187.324H126.611L121.861 206.742L118.023 187.324H111.069L117.833 214ZM151.15 203.36C151.15 210.048 155.292 214.304 160.46 214.304C163.614 214.304 165.856 212.86 167.034 210.998V214H173.532V192.796H167.034V195.798C165.894 193.936 163.652 192.492 160.498 192.492C155.292 192.492 151.15 196.672 151.15 203.36ZM167.034 203.398C167.034 206.78 164.868 208.642 162.398 208.642C159.966 208.642 157.762 206.742 157.762 203.36C157.762 199.978 159.966 198.154 162.398 198.154C164.868 198.154 167.034 200.016 167.034 203.398ZM179.259 206.628C179.259 212.138 182.337 214 186.745 214H190.051V208.49H187.733C186.289 208.49 185.757 207.958 185.757 206.704V198.192H190.013V192.796H185.757V187.628H179.259V192.796H176.675V198.192H179.259V206.628ZM203.018 197.698C205.184 197.698 207.008 199.028 207.008 201.346H198.876C199.256 198.99 200.89 197.698 203.018 197.698ZM213.164 206.97H206.248C205.716 208.11 204.69 209.022 202.866 209.022C200.776 209.022 199.066 207.73 198.838 204.956H213.544C213.62 204.31 213.658 203.664 213.658 203.056C213.658 196.596 209.288 192.492 203.094 192.492C196.786 192.492 192.378 196.672 192.378 203.398C192.378 210.124 196.862 214.304 203.094 214.304C208.376 214.304 212.138 211.112 213.164 206.97ZM223.584 204.158C223.584 200.51 225.37 199.446 228.448 199.446H230.234V192.568C227.384 192.568 225.066 194.088 223.584 196.33V192.796H217.086V214H223.584V204.158Z" fill="white"/>
<path d="M116 37.8125L151.375 73.1875C158.371 80.1788 163.136 89.0879 165.068 98.7878C167 108.488 166.012 118.543 162.228 127.681C158.445 136.819 152.036 144.63 143.813 150.126C135.59 155.621 125.922 158.554 116.031 158.554C106.141 158.554 96.4725 155.621 88.2493 150.126C80.0262 144.63 73.6176 136.819 69.8341 127.681C66.0507 118.543 65.0625 108.488 66.9944 98.7878C68.9263 89.0879 73.6916 80.1788 80.6875 73.1875L116 37.8125Z" fill="white"/>
<path d="M163 7.84583L179.508 24.3542C182.773 27.6168 184.997 31.7744 185.898 36.301C186.8 40.8276 186.339 45.52 184.573 49.7845C182.808 54.049 179.817 57.694 175.979 60.2586C172.142 62.8232 167.63 64.1921 163.015 64.1921C158.399 64.1921 153.887 62.8232 150.05 60.2586C146.212 57.694 143.222 54.049 141.456 49.7845C139.69 45.52 139.229 40.8276 140.131 36.301C141.032 31.7744 143.256 27.6168 146.521 24.3542L163 7.84583Z" fill="white"/>
</svg>
